<svg xmlns="http://www.w3.org/2000/svg" version="1.1" xmlns:xlink="http://www.w3.org/1999/xlink" xmlns:svgjs="http://svgjs.dev/svgjs" viewBox="0 0 800 800"><symbol id="SvgjsSymbol1006"><polygon points="0,18.75 37.5,0 75,18.75 37.5,37.5"></polygon></symbol><symbol id="SvgjsSymbol1007"><polygon points="0,18.75 37.5,37.5 37.5,75 0,56.25"></polygon></symbol><symbol id="SvgjsSymbol1008"><polygon points="37.5,37.5 75,18.75 75,56.25 37.5,75"></polygon></symbol><g shape-rendering="crispEdges"><g><use xlink:href="#SvgjsSymbol1006" x="187.5" y="318.75" fill="hsl(89, 89%, 52%)"></use><use xlink:href="#SvgjsSymbol1007" x="187.5" y="318.75" fill="#bfff5b"></use><use xlink:href="#SvgjsSymbol1008" x="187.5" y="318.75" fill="#4fbf00"></use></g><g><use xlink:href="#SvgjsSymbol1006" x="243.75" y="337.5" fill="hsl(89, 89%, 52%)"></use><use xlink:href="#SvgjsSymbol1007" x="243.75" y="337.5" fill="#bfff5b"></use><use xlink:href="#SvgjsSymbol1008" x="243.75" y="337.5" fill="#4fbf00"></use></g><g><use xlink:href="#SvgjsSymbol1006" x="281.25" y="356.25" fill="hsl(89, 89%, 52%)"></use><use xlink:href="#SvgjsSymbol1007" x="281.25" y="356.25" fill="#bfff5b"></use><use xlink:href="#SvgjsSymbol1008" x="281.25" y="356.25" fill="#4fbf00"></use></g><g><use xlink:href="#SvgjsSymbol1006" x="243.75" y="300" fill="hsl(89, 89%, 52%)"></use><use xlink:href="#SvgjsSymbol1007" x="243.75" y="300" fill="#bfff5b"></use><use xlink:href="#SvgjsSymbol1008" x="243.75" y="300" fill="#4fbf00"></use></g><g><use xlink:href="#SvgjsSymbol1006" x="225" y="300" fill="hsl(89, 89%, 52%)"></use><use xlink:href="#SvgjsSymbol1007" x="225" y="300" fill="#bfff5b"></use><use xlink:href="#SvgjsSymbol1008" x="225" y="300" fill="#4fbf00"></use></g><g><use xlink:href="#SvgjsSymbol1006" x="300" y="300" fill="hsl(89, 89%, 52%)"></use><use xlink:href="#SvgjsSymbol1007" x="300" y="300" fill="#bfff5b"></use><use xlink:href="#SvgjsSymbol1008" x="300" y="300" fill="#4fbf00"></use></g><g><use xlink:href="#SvgjsSymbol1006" x="356.25" y="300" fill="hsl(89, 89%, 52%)"></use><use xlink:href="#SvgjsSymbol1007" x="356.25" y="300" fill="#bfff5b"></use><use xlink:href="#SvgjsSymbol1008" x="356.25" y="300" fill="#4fbf00"></use></g><g><use xlink:href="#SvgjsSymbol1006" x="262.5" y="243.75" fill="hsl(89, 89%, 52%)"></use><use xlink:href="#SvgjsSymbol1007" x="262.5" y="243.75" fill="#bfff5b"></use><use xlink:href="#SvgjsSymbol1008" x="262.5" y="243.75" fill="#4fbf00"></use></g><g><use xlink:href="#SvgjsSymbol1006" x="318.75" y="337.5" fill="hsl(89, 89%, 52%)"></use><use xlink:href="#SvgjsSymbol1007" x="318.75" y="337.5" fill="#bfff5b"></use><use xlink:href="#SvgjsSymbol1008" x="318.75" y="337.5" fill="#4fbf00"></use></g><g><use xlink:href="#SvgjsSymbol1006" x="337.5" y="262.5" fill="hsl(89, 89%, 52%)"></use><use xlink:href="#SvgjsSymbol1007" x="337.5" y="262.5" fill="#bfff5b"></use><use xlink:href="#SvgjsSymbol1008" x="337.5" y="262.5" fill="#4fbf00"></use></g></g><g></g></svg>