<svg id="visual" viewBox="0 0 900 600" width="900" height="600" xmlns="http://www.w3.org/2000/svg" xmlns:xlink="http://www.w3.org/1999/xlink" version="1.1"><rect x="0" y="0" width="900" height="600" fill="#ebeff2"></rect><defs><linearGradient id="grad1_0" x1="33.3%" y1="0%" x2="100%" y2="100%"><stop offset="20%" stop-color="#ebeff2" stop-opacity="1"></stop><stop offset="80%" stop-color="#ebeff2" stop-opacity="1"></stop></linearGradient></defs><defs><linearGradient id="grad2_0" x1="0%" y1="0%" x2="66.7%" y2="100%"><stop offset="20%" stop-color="#ebeff2" stop-opacity="1"></stop><stop offset="80%" stop-color="#ebeff2" stop-opacity="1"></stop></linearGradient></defs><g transform="translate(900, 0)"><path d="M0 486.7C-47.1 442.7 -94.1 398.6 -158.4 382.5C-222.7 366.4 -304.3 378.2 -344.2 344.2C-384.1 310.2 -382.3 230.3 -399.1 165.3C-415.9 100.3 -451.3 50.2 -486.7 0L0 0Z" fill="#bef40e"></path></g><g transform="translate(0, 600)"><path d="M0 -486.7C61.8 -466.8 123.6 -446.8 172.2 -415.7C220.9 -384.7 256.4 -342.6 305.5 -305.5C354.6 -268.4 417.2 -236.3 449.7 -186.3C482.2 -136.2 484.5 -68.1 486.7 0L0 0Z" fill="#bef40e"></path></g></svg>