<?xml version="1.0" standalone="no"?>
<svg xmlns:xlink="http://www.w3.org/1999/xlink" id="wave" style="transform:rotate(0deg); transition: 0.3s" viewBox="0 0 1440 210" version="1.1" xmlns="http://www.w3.org/2000/svg"><defs><linearGradient id="sw-gradient-0" x1="0" x2="0" y1="1" y2="0"><stop stop-color="rgba(245, 54, 92, 1)" offset="0%"/><stop stop-color="rgba(251, 99, 64, 1)" offset="100%"/></linearGradient></defs><path style="transform:translate(0, 0px); opacity:1" fill="url(#sw-gradient-0)" d="M0,105L18.5,101.5C36.9,98,74,91,111,91C147.7,91,185,98,222,112C258.5,126,295,147,332,129.5C369.2,112,406,56,443,42C480,28,517,56,554,56C590.8,56,628,28,665,24.5C701.5,21,738,42,775,52.5C812.3,63,849,63,886,70C923.1,77,960,91,997,105C1033.8,119,1071,133,1108,115.5C1144.6,98,1182,49,1218,38.5C1255.4,28,1292,56,1329,63C1366.2,70,1403,56,1440,52.5C1476.9,49,1514,56,1551,63C1587.7,70,1625,77,1662,77C1698.5,77,1735,70,1772,59.5C1809.2,49,1846,35,1883,49C1920,63,1957,105,1994,112C2030.8,119,2068,91,2105,98C2141.5,105,2178,147,2215,140C2252.3,133,2289,77,2326,73.5C2363.1,70,2400,119,2437,119C2473.8,119,2511,70,2548,49C2584.6,28,2622,35,2640,38.5L2658.5,42L2658.5,210L2640,210C2621.5,210,2585,210,2548,210C2510.8,210,2474,210,2437,210C2400,210,2363,210,2326,210C2289.2,210,2252,210,2215,210C2178.5,210,2142,210,2105,210C2067.7,210,2031,210,1994,210C1956.9,210,1920,210,1883,210C1846.2,210,1809,210,1772,210C1735.4,210,1698,210,1662,210C1624.6,210,1588,210,1551,210C1513.8,210,1477,210,1440,210C1403.1,210,1366,210,1329,210C1292.3,210,1255,210,1218,210C1181.5,210,1145,210,1108,210C1070.8,210,1034,210,997,210C960,210,923,210,886,210C849.2,210,812,210,775,210C738.5,210,702,210,665,210C627.7,210,591,210,554,210C516.9,210,480,210,443,210C406.2,210,369,210,332,210C295.4,210,258,210,222,210C184.6,210,148,210,111,210C73.8,210,37,210,18,210L0,210Z"/></svg>